<?xml version="1.0" encoding="UTF-8" standalone="no"?>
<svg
   xmlns:dc="http://purl.org/dc/elements/1.1/"
   xmlns:cc="http://creativecommons.org/ns#"
   xmlns:rdf="http://www.w3.org/1999/02/22-rdf-syntax-ns#"
   xmlns:svg="http://www.w3.org/2000/svg"
   xmlns="http://www.w3.org/2000/svg"
   xmlns:sodipodi="http://sodipodi.sourceforge.net/DTD/sodipodi-0.dtd"
   xmlns:inkscape="http://www.inkscape.org/namespaces/inkscape"
   id="svg2"
   version="1.1"
   x="0px"
   y="0px"
   viewBox="0 0 130.22358 117.82544"
   enable-background="new 0 0 100 100"
   xml:space="preserve"
   inkscape:version="0.91 r13725"
   sodipodi:docname="pyramid2.svg"
   width="130.22357"
   height="117.82544"><sodipodi:namedview
     pagecolor="#000000"
     bordercolor="#666666"
     borderopacity="1"
     objecttolerance="10"
     gridtolerance="10"
     guidetolerance="10"
     inkscape:pageopacity="0"
     inkscape:pageshadow="2"
     inkscape:window-width="1256"
     inkscape:window-height="682"
     id="namedview4242"
     showgrid="false"
     inkscape:showpageshadow="false"
     showborder="true"
     fit-margin-top="0"
     fit-margin-left="-5"
     fit-margin-right="0"
     fit-margin-bottom="0"
     inkscape:zoom="2.36"
     inkscape:cx="-11.994754"
     inkscape:cy="48.440051"
     inkscape:window-x="0"
     inkscape:window-y="0"
     inkscape:window-maximized="0"
     inkscape:current-layer="svg2" /><metadata
     id="metadata16"><rdf:RDF><cc:Work
         rdf:about=""><dc:format>image/svg+xml</dc:format><dc:type
           rdf:resource="http://purl.org/dc/dcmitype/StillImage" /><dc:title /></cc:Work></rdf:RDF></metadata><defs
     id="defs14"><filter
       height="1.129586"
       y="-0.064793006"
       width="1.1117345"
       x="-0.055867266"
       id="filter4195"
       style="color-interpolation-filters:sRGB"><feGaussianBlur
         id="feGaussianBlur4197"
         stdDeviation="2.0950085" /></filter><filter
       height="1.259172"
       y="-0.12958601"
       width="1.2234691"
       x="-0.11173453"
       id="filter4199"
       style="color-interpolation-filters:sRGB"><feGaussianBlur
         id="feGaussianBlur4201"
         stdDeviation="4.1900169" /></filter><filter
       height="1.3887579"
       y="-0.19437902"
       width="1.3352036"
       x="-0.16760179"
       id="filter4203"
       style="color-interpolation-filters:sRGB"><feGaussianBlur
         id="feGaussianBlur4205"
         stdDeviation="6.2850254" /></filter><filter
       height="1.518344"
       y="-0.25917202"
       width="1.4469382"
       x="-0.22346906"
       id="filter4215"
       style="color-interpolation-filters:sRGB"><feGaussianBlur
         id="feGaussianBlur4217"
         stdDeviation="8.3800339" /></filter></defs><g
     id="g4283"
     style="fill:#00ffff;fill-opacity:1"
     transform="translate(-2.9411758,-0.36764706)"><path
       inkscape:connector-curvature="0"
       d="m 112.87393,83.175008 -44.021003,-62.285 c -0.021,-0.029 -0.049,-0.049 -0.072,-0.076 -0.031,-0.034 -0.06,-0.068 -0.095,-0.098 -0.046,-0.04 -0.097,-0.07 -0.149,-0.1 -0.028,-0.016 -0.049,-0.039 -0.078,-0.052 -0.01,-0.005 -0.021,-0.004 -0.031,-0.008 -0.059,-0.024 -0.121,-0.037 -0.184,-0.049 -0.037,-0.007 -0.072,-0.021 -0.109,-0.024 -0.091,-0.008 -0.183,-0.001 -0.275,0.017 -0.007,10e-4 -0.014,0 -0.021,0.002 -0.002,0.001 -0.005,0 -0.007,0.001 -0.1,0.023 -0.193,0.063 -0.279,0.114 -0.011,0.007 -0.02,0.018 -0.031,0.025 -0.074,0.048 -0.141,0.104 -0.199,0.17 -0.005,0.006 -0.012,0.009 -0.017,0.015 l -44.024,52.502 c -0.175,0.209 -0.255,0.481 -0.221,0.751 0.034,0.27 0.179,0.514 0.4,0.672 l 32.226,23.145 c 0.045,0.031 0.097,0.05 0.146,0.072 0.033,0.018 0.062,0.037 0.097,0.051 0.106,0.037 0.216,0.061 0.327,0.061 0.075,0 0.152,-0.009 0.227,-0.025 l 55.817003,-13.361 c 0.315,-0.075 0.573,-0.303 0.688,-0.607 0.115,-0.308 0.073,-0.648 -0.115,-0.913 z m -46.328003,-58.399 -11.009,70.603 -30.077,-21.601 41.086,-49.002 z m -9.096,71.034 11.2,-71.818 41.793003,59.133 -52.993003,12.685 z"
       id="path6-9-52"
       style="fill:#00ffff;fill-opacity:1;filter:url(#filter4215)" /><path
       d="m 112.87392,83.175013 -44.020999,-62.285 c -0.021,-0.029 -0.049,-0.049 -0.072,-0.076 -0.031,-0.034 -0.06,-0.068 -0.095,-0.098 -0.046,-0.04 -0.097,-0.07 -0.149,-0.1 -0.028,-0.016 -0.049,-0.039 -0.078,-0.052 -0.01,-0.005 -0.021,-0.004 -0.031,-0.008 -0.059,-0.024 -0.121,-0.037 -0.184,-0.049 -0.037,-0.007 -0.072,-0.021 -0.109,-0.024 -0.091,-0.008 -0.183,-0.001 -0.275,0.017 -0.007,0.001 -0.014,0 -0.021,0.002 -0.002,10e-4 -0.005,0 -0.007,10e-4 -0.1,0.023 -0.193,0.063 -0.279,0.114 -0.011,0.007 -0.02,0.018 -0.031,0.025 -0.074,0.048 -0.141,0.104 -0.199,0.17 -0.005,0.006 -0.012,0.009 -0.017,0.015 l -44.024,52.502 c -0.175,0.209 -0.255,0.481 -0.221,0.751 0.034,0.27 0.179,0.514 0.4,0.672 l 32.226,23.145 c 0.045,0.031 0.097,0.05 0.146,0.072 0.033,0.018 0.062,0.037 0.097,0.051 0.106,0.037 0.216,0.061 0.327,0.061 0.075,0 0.152,-0.009 0.227,-0.025 l 55.817009,-13.361 c 0.315,-0.075 0.57299,-0.303 0.688,-0.607 0.115,-0.308 0.073,-0.648 -0.115,-0.913 z m -46.327999,-58.399 -11.009,70.603 -30.077,-21.601 41.086,-49.002 z m -9.096,71.034 11.2,-71.818 41.793009,59.133 -52.993009,12.685 z"
       id="path6-9-0"
       style="fill:#00ffff;fill-opacity:1;filter:url(#filter4203)"
       inkscape:connector-curvature="0" /><path
       inkscape:connector-curvature="0"
       d="m 112.87393,83.175009 -44.021006,-62.285 c -0.021,-0.029 -0.049,-0.049 -0.072,-0.076 -0.031,-0.034 -0.06,-0.068 -0.095,-0.098 -0.046,-0.04 -0.097,-0.07 -0.149,-0.1 -0.028,-0.016 -0.049,-0.039 -0.078,-0.052 -0.01,-0.005 -0.021,-0.004 -0.031,-0.008 -0.059,-0.024 -0.121,-0.037 -0.184,-0.049 -0.037,-0.007 -0.072,-0.021 -0.109,-0.024 -0.091,-0.008 -0.183,-10e-4 -0.275,0.017 -0.007,0.001 -0.014,0 -0.021,0.002 -0.002,10e-4 -0.005,0 -0.007,10e-4 -0.1,0.023 -0.193,0.063 -0.279,0.114 -0.011,0.007 -0.02,0.018 -0.031,0.025 -0.074,0.048 -0.141,0.104 -0.199,0.17 -0.005,0.006 -0.012,0.009 -0.017,0.015 l -44.024,52.502 c -0.175,0.209 -0.255,0.481 -0.221,0.751 0.034,0.27 0.179,0.514 0.4,0.672 l 32.226,23.145 c 0.045,0.031 0.097,0.05 0.146,0.072 0.033,0.018 0.062,0.037 0.097,0.051 0.106,0.037 0.216,0.061 0.327,0.061 0.075,0 0.152,-0.009 0.227,-0.025 l 55.817006,-13.361 c 0.315,-0.075 0.573,-0.303 0.688,-0.607 0.115,-0.308 0.073,-0.648 -0.115,-0.913 z m -46.328006,-58.399 -11.009,70.603 -30.077,-21.601 41.086,-49.002 z m -9.096,71.034 11.2,-71.818 41.793006,59.133 -52.993006,12.685 z"
       id="path6-9-5"
       style="fill:#00ffff;fill-opacity:1;filter:url(#filter4199)" /><path
       d="m 112.87393,83.175008 -44.021002,-62.285 c -0.021,-0.029 -0.049,-0.049 -0.072,-0.076 -0.031,-0.034 -0.06,-0.068 -0.095,-0.098 -0.046,-0.04 -0.097,-0.07 -0.149,-0.1 -0.028,-0.016 -0.049,-0.039 -0.078,-0.052 -0.01,-0.005 -0.021,-0.004 -0.031,-0.008 -0.059,-0.024 -0.121,-0.037 -0.184,-0.049 -0.037,-0.007 -0.072,-0.021 -0.109,-0.024 -0.091,-0.008 -0.183,-0.001 -0.275,0.017 -0.007,10e-4 -0.014,0 -0.021,0.002 -0.002,0.001 -0.005,0 -0.007,0.001 -0.1,0.023 -0.193,0.063 -0.279,0.114 -0.011,0.007 -0.02,0.018 -0.031,0.025 -0.074,0.048 -0.141,0.104 -0.199,0.17 -0.005,0.006 -0.012,0.009 -0.017,0.015 l -44.024,52.502 c -0.175,0.209 -0.255,0.481 -0.221,0.751 0.034,0.27 0.179,0.514 0.4,0.672 l 32.226,23.145 c 0.045,0.031 0.097,0.05 0.146,0.072 0.033,0.018 0.062,0.037 0.097,0.051 0.106,0.037 0.216,0.061 0.327,0.061 0.075,0 0.152,-0.009 0.227,-0.025 l 55.817002,-13.361 c 0.315,-0.075 0.573,-0.303 0.688,-0.607 0.115,-0.308 0.073,-0.648 -0.115,-0.913 z m -46.328002,-58.399 -11.009,70.603 -30.077,-21.601 41.086,-49.002 z m -9.096,71.034 11.2,-71.818 41.793002,59.133 -52.993002,12.685 z"
       id="path6-9"
       style="fill:#00ffff;fill-opacity:1;filter:url(#filter4195)"
       inkscape:connector-curvature="0" /></g><path
     inkscape:connector-curvature="0"
     style="fill:#c1ffff;fill-opacity:1"
     id="path6"
     d="m 110.55492,83.429532 -44.020997,-62.285 c -0.021,-0.029 -0.049,-0.049 -0.072,-0.076 -0.031,-0.034 -0.06,-0.068 -0.095,-0.098 -0.046,-0.04 -0.097,-0.07 -0.149,-0.1 -0.028,-0.016 -0.049,-0.039 -0.078,-0.052 -0.01,-0.005 -0.021,-0.004 -0.031,-0.008 -0.059,-0.024 -0.121,-0.037 -0.184,-0.049 -0.037,-0.007 -0.072,-0.021 -0.109,-0.024 -0.091,-0.008 -0.183,-0.001 -0.275,0.017 -0.007,10e-4 -0.014,0 -0.021,0.002 -0.002,0.001 -0.005,0 -0.007,0.001 -0.1,0.023 -0.193,0.063 -0.279,0.114 -0.011,0.007 -0.02,0.018 -0.031,0.025 -0.074,0.048 -0.141,0.104 -0.199,0.17 -0.005,0.006 -0.012,0.009 -0.017,0.015 l -44.024,52.502 c -0.175,0.209 -0.255,0.481 -0.221,0.751 0.034,0.27 0.179,0.514 0.4,0.672 l 32.226,23.145 c 0.045,0.031 0.097,0.05 0.146,0.072 0.033,0.018 0.062,0.037 0.097,0.051 0.106,0.037 0.216,0.061 0.327,0.061 0.075,0 0.152,-0.009 0.227,-0.025 l 55.816997,-13.361 c 0.315,-0.075 0.573,-0.303 0.688,-0.607 0.115,-0.308 0.073,-0.648 -0.115,-0.913 z m -46.327997,-58.399 -11.009,70.603 -30.077,-21.601 41.086,-49.002 z m -9.096,71.034 11.2,-71.818 41.792997,59.133 -52.992997,12.685 z" /></svg>